<?xml version="1.0" standalone="no"?>
<!DOCTYPE svg PUBLIC "-//W3C//DTD SVG 20010904//EN"
 "http://www.w3.org/TR/2001/REC-SVG-20010904/DTD/svg10.dtd">
<svg version="1.0" xmlns="http://www.w3.org/2000/svg"
 width="253.000000pt" height="253.000000pt" viewBox="0 0 253.000000 253.000000"
 preserveAspectRatio="xMidYMid meet">

<g transform="translate(0.000000,253.000000) scale(0.100000,-0.100000)"
fill="#000000" stroke="none">
<path d="M470 2253 c-50 -6 -130 -25 -130 -31 0 -4 37 -7 83 -7 71 0 90 -4
147 -31 36 -17 93 -57 127 -88 60 -55 62 -56 122 -56 34 0 61 4 61 10 0 16
-140 127 -202 160 -55 30 -149 49 -208 43z"/>
<path d="M1745 2005 c32 -9 58 -24 72 -42 l23 -28 0 -467 c0 -258 -3 -468 -7
-468 -5 1 -39 36 -78 80 -38 44 -72 76 -76 72 -4 -4 -10 -35 -13 -69 l-7 -61
155 -170 c208 -228 282 -287 413 -331 69 -23 146 -27 223 -10 56 12 69 31 15
22 -52 -8 -152 15 -220 50 -71 38 -160 120 -262 239 l-74 87 3 515 3 514 25
26 c13 15 44 33 70 41 42 13 34 14 -135 13 -170 0 -177 -1 -130 -13z"/>
<path d="M744 1989 c-85 -14 -205 -56 -274 -96 -92 -54 -226 -191 -272 -278
-113 -219 -117 -457 -11 -675 39 -80 60 -108 132 -180 100 -99 181 -149 306
-189 220 -71 465 -59 653 30 185 89 309 274 341 512 13 92 13 221 1 172 -4
-16 -8 -51 -9 -76 -2 -71 -37 -196 -78 -279 -53 -106 -171 -224 -273 -273
-299 -145 -664 -76 -855 161 -57 72 -109 177 -131 267 -23 94 -23 278 -1 365
61 234 244 424 458 475 82 19 236 19 318 0 159 -38 314 -158 362 -284 13 -33
25 -58 27 -56 3 3 -24 215 -34 262 -3 16 -25 32 -77 57 -167 79 -408 114 -583
85z"/>
<path d="M880 1387 c0 -470 -2 -514 -18 -533 -22 -28 -54 -44 -86 -44 -14 0
-28 -5 -31 -10 -4 -7 55 -10 169 -10 111 0 176 4 176 10 0 6 -15 10 -34 10
-44 0 -83 32 -96 78 -13 47 -14 902 -1 902 5 0 139 -144 297 -320 191 -212
291 -315 296 -307 4 7 8 40 8 73 l0 62 -261 290 c-261 290 -262 291 -308 297
-25 3 -61 7 -78 10 l-33 4 0 -512z"/>
</g>
</svg>
